<svg width="34" height="32" viewBox="0 0 34 32" fill="none" xmlns="http://www.w3.org/2000/svg">
<path d="M31.1667 29.3334L28.3334 26.6667M16.2917 28C18.0591 28 19.8091 27.6724 21.442 27.0358C23.0748 26.3993 24.5585 25.4662 25.8082 24.29C27.0579 23.1138 28.0492 21.7175 28.7256 20.1807C29.4019 18.6439 29.75 16.9968 29.75 15.3334C29.75 13.6699 29.4019 12.0228 28.7256 10.486C28.0492 8.94924 27.0579 7.55288 25.8082 6.37667C24.5585 5.20046 23.0748 4.26744 21.442 3.63088C19.8091 2.99432 18.0591 2.66669 16.2917 2.66669C12.7223 2.66669 9.29916 4.00121 6.77523 6.37667C4.2513 8.75213 2.83337 11.9739 2.83337 15.3334C2.83337 18.6928 4.2513 21.9146 6.77523 24.29C9.29916 26.6655 12.7223 28 16.2917 28V28Z" stroke="black" stroke-width="1.5" stroke-linecap="round" stroke-linejoin="round"/>
</svg>
