<svg width="31" height="35" viewBox="0 0 31 35" fill="none" xmlns="http://www.w3.org/2000/svg">
<path d="M13.55 1L5.33333 14.1667M4.33333 1H26.3333C28.1667 1 29.6667 2.5 29.6667 4.33333V8C29.6667 9.33333 28.8333 11 28 11.8333L20.8333 18.1667C19.8333 19 19.1667 20.6667 19.1667 22V29.1667C19.1667 30.1667 18.5 31.5 17.6667 32L15.3333 33.5C13.1667 34.8333 10.1667 33.3333 10.1667 30.6667V21.8333C10.1667 20.6667 9.5 19.1667 8.83333 18.3333L2.5 11.6667C1.66667 10.8333 1 9.33333 1 8.33333V4.5C1 2.5 2.5 1 4.33333 1Z" stroke="black" stroke-width="2" stroke-miterlimit="10" stroke-linecap="round" stroke-linejoin="round"/>
</svg>
