<svg width="90" height="90" viewBox="0 0 90 90" fill="none" xmlns="http://www.w3.org/2000/svg">
<path d="M45.6 40.7625C45.225 40.725 44.775 40.725 44.3625 40.7625C40.0582 40.6164 35.9799 38.8007 32.9911 35.6999C30.0023 32.5991 28.3377 28.4567 28.35 24.15C28.35 14.9625 35.775 7.50002 45 7.50002C47.184 7.46062 49.3544 7.85179 51.3873 8.65119C53.4202 9.45059 55.2757 10.6426 56.8479 12.1591C58.4201 13.6756 59.6782 15.4869 60.5504 17.4896C61.4226 19.4923 61.8918 21.6472 61.9312 23.8313C61.9706 26.0153 61.5794 28.1857 60.78 30.2186C59.9806 32.2515 58.7887 34.107 57.2722 35.6792C55.7557 37.2514 53.9443 38.5095 51.9416 39.3817C49.9389 40.2539 47.784 40.7231 45.6 40.7625ZM26.85 54.6C17.775 60.675 17.775 70.575 26.85 76.6125C37.1625 83.5125 54.075 83.5125 64.3875 76.6125C73.4625 70.5375 73.4625 60.6375 64.3875 54.6C54.1125 47.7375 37.2 47.7375 26.85 54.6Z" stroke="black" stroke-width="1.5" stroke-linecap="round" stroke-linejoin="round"/>
</svg>
