<svg width="24" height="24" viewBox="0 0 24 24" fill="none" xmlns="http://www.w3.org/2000/svg">
<path d="M17 18.4301H13L8.55 21.3901C8.39982 21.4902 8.22528 21.5476 8.045 21.5563C7.86472 21.565 7.68546 21.5246 7.52635 21.4394C7.36724 21.3542 7.23424 21.2274 7.14154 21.0725C7.04884 20.9177 6.99992 20.7405 7 20.5601V18.4301C4 18.4301 2 16.4301 2 13.4301V7.43005C2 4.43005 4 2.43005 7 2.43005H17C20 2.43005 22 4.43005 22 7.43005V13.4301C22 16.4301 20 18.4301 17 18.4301Z" stroke="white" stroke-width="1.5" stroke-miterlimit="10" stroke-linecap="round" stroke-linejoin="round"/>
<path d="M12.0001 11.36V11.15C12.0001 10.47 12.4201 10.11 12.8401 9.81998C13.2501 9.53998 13.6601 9.17999 13.6601 8.51999C13.6601 7.59999 12.9201 6.85999 12.0001 6.85999C11.0801 6.85999 10.3401 7.59999 10.3401 8.51999M11.9951 13.75H12.0051" stroke="white" stroke-width="1.5" stroke-linecap="round" stroke-linejoin="round"/>
</svg>
