<svg width="31" height="36" viewBox="0 0 31 36" fill="none" xmlns="http://www.w3.org/2000/svg">
<path d="M13.55 1.12939L5.33333 14.367M4.33333 1.12939H26.3333C28.1667 1.12939 29.6667 2.63748 29.6667 4.4807V8.16713C29.6667 9.50765 28.8333 11.1833 28 12.0211L20.8333 18.3886C19.8333 19.2264 19.1667 20.9021 19.1667 22.2426V29.4479C19.1667 30.4533 18.5 31.7938 17.6667 32.2965L15.3333 33.8046C13.1667 35.1451 10.1667 33.637 10.1667 30.956V22.075C10.1667 20.9021 9.5 19.394 8.83333 18.5562L2.5 11.8536C1.66667 11.0157 1 9.50765 1 8.50226V4.64826C1 2.63748 2.5 1.12939 4.33333 1.12939Z" stroke="black" stroke-width="2" stroke-miterlimit="10" stroke-linecap="round" stroke-linejoin="round"/>
</svg>
